<svg width="84" height="100" viewBox="0 0 84 100" fill="none" xmlns="http://www.w3.org/2000/svg">
<path d="M76.7163 87.6667L82.133 49.75L49.633 55.1667M6.29963 28.0833L22.5496 11.8333L52.3413 28.0833L39.558 47.0417M2.18306 63.2917C0.654674 68.2916 0.606165 73.627 2.04338 78.6539C3.4806 83.6808 6.3421 88.1842 10.2825 91.6206C14.2228 95.0569 19.0736 97.2793 24.2493 98.0195C29.4249 98.7596 34.7041 97.9859 39.4497 95.7917M53.7497 79.5415C55.278 74.5416 55.3265 69.2062 53.8893 64.1793C52.4521 59.1524 49.5906 54.649 45.6502 51.2126C41.7099 47.7763 36.8591 45.5539 31.6835 44.8137C26.5078 44.0736 21.2286 44.8473 16.483 47.0415M71.2996 6.41667C71.2996 9.40821 68.8745 11.8333 65.883 11.8333C62.8914 11.8333 60.4663 9.40821 60.4663 6.41667C60.4663 3.42512 62.8914 1 65.883 1C68.8745 1 71.2996 3.42512 71.2996 6.41667Z" stroke="black" stroke-width="2" stroke-linecap="round" stroke-linejoin="round"/>
</svg>
